<svg xmlns="http://www.w3.org/2000/svg" width="240" height="240" viewBox="0 0 240 240">
  <defs>
    <pattern id="bridal-lace" width="40" height="40" patternUnits="userSpaceOnUse">
      <g fill="none" stroke="white" stroke-linecap="round" stroke-linejoin="round">
        <path d="M0 15 Q20 -7 40 15" stroke-width="1.8"></path>
        <path d="M0 18 Q20 -2 40 18" stroke-width=".7"></path>

        <path d="M5 12L9 21
                 M11 8L14 20
                 M17 6L18 19
                 M23 6L22 19
                 M29 8L26 20
                 M35 12L31 21" stroke-width=".55" opacity=".75"></path>

        <path d="M0 27 Q10 20 20 27 T40 27" stroke-width="1.2"></path>

        <path d="M10 24 Q3 16 4 24 Q6 28 10 24Z
                 M30 24 Q37 16 36 24 Q34 28 30 24Z" fill="white" fill-opacity=".7" stroke-width=".6"></path>

        <path d="M20 23
                 C12 20 14 15 18 17
                 C16 10 24 10 22 17
                 C26 15 28 20 20 23Z" fill="white" fill-opacity=".45" stroke-width=".85"></path>

        <path d="M0 33H40" stroke-width="1.6"></path>
        <path d="M0 37H40" stroke-width=".7"></path>
      </g>

      <g fill="white">
        <circle cx="20" cy="20" r="1.3"></circle>
        <circle cx="0" cy="15" r="1.1"></circle>
        <circle cx="40" cy="15" r="1.1"></circle>
      </g>
    </pattern>

    <g id="lace-edge">
      <rect x="40" y="0" width="160" height="40" fill="url(#bridal-lace)"></rect>
    </g>

    <g id="lace-corner" fill="none" stroke="white" stroke-linecap="round" stroke-linejoin="round">
      <path d="M15 40 C15 26 26 15 40 15" stroke-width="1.8"></path>
      <path d="M18 40 C18 28 28 18 40 18" stroke-width=".7"></path>

      <path d="M16 34L22 34
               M18 28L24 30
               M22 23L27 27
               M28 18L30 24
               M34 16L34 22" stroke-width=".55" opacity=".75"></path>

      <path d="M33 40 Q33 33 40 33" stroke-width="1.6"></path>
      <path d="M37 40 Q37 37 40 37" stroke-width=".7"></path>

      <path d="M24 40 Q23 24 40 24" stroke-width="1.2"></path>

      <path d="M27 30 Q18 25 22 22 Q29 22 27 30Z
               M31 27 Q26 18 30 20 Q35 22 31 27Z" fill="white" fill-opacity=".6" stroke-width=".7"></path>

      <g fill="white" stroke="none">
        <circle cx="24" cy="36" r="1"></circle>
        <circle cx="36" cy="24" r="1"></circle>
        <circle cx="29" cy="29" r="1.3"></circle>
      </g>
    </g>
  </defs>

  <use href="#lace-edge"></use>
  <use href="#lace-edge" transform="rotate(90 120 120)"></use>
  <use href="#lace-edge" transform="rotate(180 120 120)"></use>
  <use href="#lace-edge" transform="rotate(270 120 120)"></use>

  <use href="#lace-corner"></use>
  <use href="#lace-corner" transform="rotate(90 120 120)"></use>
  <use href="#lace-corner" transform="rotate(180 120 120)"></use>
  <use href="#lace-corner" transform="rotate(270 120 120)"></use>
</svg>